<?xml version="1.0" encoding="UTF-8" standalone="no"?>
<!-- Created with Inkscape (http://www.inkscape.org/) -->

<svg
   version="1.1"
   id="svg2"
   width="1261.4268"
   height="185.77333"
   viewBox="0 0 1261.4268 185.77333"
   sodipodi:docname="logo_b_fontys_ict_innovationlab_wit.eps"
   xmlns:inkscape="http://www.inkscape.org/namespaces/inkscape"
   xmlns:sodipodi="http://sodipodi.sourceforge.net/DTD/sodipodi-0.dtd"
   xmlns="http://www.w3.org/2000/svg"
   xmlns:svg="http://www.w3.org/2000/svg">
  <defs
     id="defs6" />
  <sodipodi:namedview
     id="namedview4"
     pagecolor="#ffffff"
     bordercolor="#000000"
     borderopacity="0.25"
     inkscape:showpageshadow="2"
     inkscape:pageopacity="0.0"
     inkscape:pagecheckerboard="0"
     inkscape:deskcolor="#d1d1d1" />
  <g
     id="g8"
     inkscape:groupmode="layer"
     inkscape:label="ink_ext_XXXXXX"
     transform="matrix(1.3333333,0,0,-1.3333333,0,185.77333)">
    <g
       id="g10"
       transform="scale(0.1)">
      <path
         d="M 1888.99,1393.31 V 0"
         style="fill:none;stroke:#ffffff;stroke-width:20;stroke-linecap:butt;stroke-linejoin:miter;stroke-miterlimit:10;stroke-dasharray:none;stroke-opacity:1"
         id="path12" />
      <path
         d="m 2139.56,978.305 h 177.11 V 313.738 h -177.11 v 664.567"
         style="fill:#ffffff;fill-opacity:1;fill-rule:nonzero;stroke:none"
         id="path14" />
      <path
         d="m 2440.39,809.766 h 156.17 v -91.391 h 1.89 c 34.26,71.406 102.83,102.832 180.9,102.832 135.19,0 189.48,-95.215 189.48,-198.047 V 313.738 H 2797.45 V 553.66 c 0,93.309 -32.38,124.735 -79.02,124.735 -70.48,0 -106.66,-48.563 -106.66,-155.204 V 313.738 h -171.38 v 496.028"
         style="fill:#ffffff;fill-opacity:1;fill-rule:nonzero;stroke:none"
         id="path16" />
      <path
         d="m 3075.38,809.766 h 156.17 v -91.391 h 1.88 c 34.27,71.406 102.84,102.832 180.91,102.832 135.19,0 189.48,-95.215 189.48,-198.047 V 313.738 H 3432.44 V 553.66 c 0,93.309 -32.38,124.735 -79.02,124.735 -70.48,0 -106.66,-48.563 -106.66,-155.204 V 313.738 h -171.38 v 496.028"
         style="fill:#ffffff;fill-opacity:1;fill-rule:nonzero;stroke:none"
         id="path18" />
      <path
         d="m 4086.46,561.277 c 0,74.266 -32.38,139.961 -111.41,139.961 -79.02,0 -111.38,-65.695 -111.38,-139.961 0,-73.312 32.36,-139.015 111.38,-139.015 79.03,0 111.41,65.703 111.41,139.015 z m -399.88,0 c 0,164.715 124.72,259.93 288.47,259.93 163.79,0 288.49,-95.215 288.49,-259.93 0,-163.75 -124.7,-258.976 -288.49,-258.976 -163.75,0 -288.47,95.226 -288.47,258.976"
         style="fill:#ffffff;fill-opacity:1;fill-rule:nonzero;stroke:none"
         id="path20" />
      <path
         d="m 4302.51,809.766 h 183.78 l 102.8,-353.215 h 1.92 l 103.79,353.215 h 170.42 L 4681.47,313.738 h -195.18 l -183.78,496.028"
         style="fill:#ffffff;fill-opacity:1;fill-rule:nonzero;stroke:none"
         id="path22" />
      <path
         d="m 5134.6,416.559 c 64.74,0 105.68,59.035 105.68,117.109 -21.9,0.957 -46.64,2.863 -72.37,2.863 -58.08,0 -103.76,-18.097 -103.76,-65.703 0,-34.289 30.47,-54.269 70.45,-54.269 z m 118.07,-102.821 c -0.95,26.66 -3.82,52.352 -3.82,78.063 h -1.91 c -39.02,-61.891 -86.64,-89.5 -157.09,-89.5 -98.07,0 -185.66,48.558 -185.66,156.144 0,151.387 164.71,169.493 256.11,169.493 27.63,0 58.08,-2.872 79.98,-6.68 -0.96,67.597 -51.43,85.703 -113.3,85.703 -55.21,0 -110.45,-10.484 -158.05,-37.141 l -2.87,116.164 c 60.95,24.739 124.74,35.223 198.06,35.223 126.62,0 236.12,-54.281 236.12,-205.652 V 430.836 c 0,-39.035 1.91,-78.066 9.52,-117.098 h -157.09"
         style="fill:#ffffff;fill-opacity:1;fill-rule:nonzero;stroke:none"
         id="path24" />
      <path
         d="m 5465.86,809.766 h 100.92 V 921.18 l 168.53,52.355 V 809.766 h 119.97 V 689.813 H 5735.31 V 507.008 c 0,-59.981 14.29,-90.449 68.54,-90.449 17.15,0 35.23,3.82 52.38,6.66 l 5.71,-111.391 c -32.36,-3.816 -64.75,-9.527 -107.59,-9.527 -153.27,0 -190.41,67.621 -190.41,185.664 v 201.848 h -98.08 v 119.953"
         style="fill:#ffffff;fill-opacity:1;fill-rule:nonzero;stroke:none"
         id="path26" />
      <path
         d="m 5952.35,809.766 h 171.38 V 313.738 h -171.38 z m 171.38,80.937 h -171.38 v 125.677 h 171.38 V 890.703"
         style="fill:#ffffff;fill-opacity:1;fill-rule:nonzero;stroke:none"
         id="path28" />
      <path
         d="m 6626.38,561.277 c 0,74.266 -32.35,139.961 -111.38,139.961 -79.02,0 -111.41,-65.695 -111.41,-139.961 0,-73.312 32.39,-139.015 111.41,-139.015 79.03,0 111.38,65.703 111.38,139.015 z m -399.87,0 c 0,164.715 124.73,259.93 288.49,259.93 163.76,0 288.49,-95.215 288.49,-259.93 0,-163.75 -124.73,-258.976 -288.49,-258.976 -163.76,0 -288.49,95.226 -288.49,258.976"
         style="fill:#ffffff;fill-opacity:1;fill-rule:nonzero;stroke:none"
         id="path30" />
      <path
         d="m 6886.26,809.766 h 156.14 v -91.391 h 1.91 c 34.27,71.406 102.81,102.832 180.91,102.832 135.19,0 189.45,-95.215 189.45,-198.047 V 313.738 H 7243.29 V 553.66 c 0,93.309 -32.35,124.735 -79.02,124.735 -70.45,0 -106.63,-48.563 -106.63,-155.204 V 313.738 h -171.38 v 496.028"
         style="fill:#ffffff;fill-opacity:1;fill-rule:nonzero;stroke:none"
         id="path32" />
      <path
         d="m 7585.48,1129.66 c 0,-3.16 -2.57,-5.73 -5.74,-5.73 -3.17,0 -5.73,2.57 -5.73,5.73 0,3.17 2.56,5.74 5.73,5.74 3.17,0 5.74,-2.57 5.74,-5.74"
         style="fill:#ffffff;fill-opacity:1;fill-rule:nonzero;stroke:none"
         id="path34" />
      <path
         d="m 7755.4,1129.54 c 0,-3.16 -2.57,-5.73 -5.73,-5.73 -3.17,0 -5.74,2.57 -5.74,5.73 0,3.17 2.57,5.74 5.74,5.74 3.16,0 5.73,-2.57 5.73,-5.74"
         style="fill:#ffffff;fill-opacity:1;fill-rule:nonzero;stroke:none"
         id="path36" />
      <path
         d="m 8091.34,707.059 c 0,-3.164 -2.57,-5.735 -5.74,-5.735 -3.16,0 -5.73,2.571 -5.73,5.735 0,3.168 2.57,5.73 5.73,5.73 3.17,0 5.74,-2.562 5.74,-5.73"
         style="fill:#ffffff;fill-opacity:1;fill-rule:nonzero;stroke:none"
         id="path38" />
      <path
         d="m 8260.45,960.438 c 0,-3.172 -2.57,-5.735 -5.74,-5.735 -3.16,0 -5.73,2.563 -5.73,5.735 0,3.164 2.57,5.73 5.73,5.73 3.17,0 5.74,-2.566 5.74,-5.73"
         style="fill:#ffffff;fill-opacity:1;fill-rule:nonzero;stroke:none"
         id="path40" />
      <path
         d="m 8095.55,620.945 c 0,-5.734 -4.65,-10.382 -10.38,-10.382 -5.74,0 -10.39,4.648 -10.39,10.382 0,5.743 4.65,10.391 10.39,10.391 5.73,0 10.38,-4.648 10.38,-10.391"
         style="fill:#ffffff;fill-opacity:1;fill-rule:nonzero;stroke:none"
         id="path42" />
      <path
         d="m 8013.36,537.273 c 0,-5.734 -4.65,-10.382 -10.38,-10.382 -5.74,0 -10.38,4.648 -10.38,10.382 0,5.731 4.64,10.379 10.38,10.379 5.73,0 10.38,-4.648 10.38,-10.379"
         style="fill:#ffffff;fill-opacity:1;fill-rule:nonzero;stroke:none"
         id="path44" />
      <path
         d="m 7929.37,538.035 c 0,-5.734 -4.65,-10.383 -10.39,-10.383 -5.73,0 -10.38,4.649 -10.38,10.383 0,5.742 4.65,10.391 10.38,10.391 5.74,0 10.39,-4.649 10.39,-10.391"
         style="fill:#ffffff;fill-opacity:1;fill-rule:nonzero;stroke:none"
         id="path46" />
      <path
         d="m 7505.38,451.402 c 0,-6.902 -5.6,-12.507 -12.51,-12.507 -6.91,0 -12.51,5.605 -12.51,12.507 0,6.907 5.6,12.512 12.51,12.512 6.91,0 12.51,-5.605 12.51,-12.512"
         style="fill:#ffffff;fill-opacity:1;fill-rule:nonzero;stroke:none"
         id="path48" />
      <path
         d="m 7505.95,537.379 c 0,-6.902 -5.6,-12.508 -12.51,-12.508 -6.91,0 -12.51,5.606 -12.51,12.508 0,6.914 5.6,12.512 12.51,12.512 6.91,0 12.51,-5.598 12.51,-12.512"
         style="fill:#ffffff;fill-opacity:1;fill-rule:nonzero;stroke:none"
         id="path50" />
      <path
         d="m 7506.52,619.938 c 0,-6.903 -5.6,-12.508 -12.51,-12.508 -6.91,0 -12.51,5.605 -12.51,12.508 0,6.914 5.6,12.511 12.51,12.511 6.91,0 12.51,-5.597 12.51,-12.511"
         style="fill:#ffffff;fill-opacity:1;fill-rule:nonzero;stroke:none"
         id="path52" />
      <path
         d="m 7505.95,707.059 c 0,-6.911 -5.6,-12.512 -12.51,-12.512 -6.91,0 -12.51,5.601 -12.51,12.512 0,6.91 5.6,12.507 12.51,12.507 6.91,0 12.51,-5.597 12.51,-12.507"
         style="fill:#ffffff;fill-opacity:1;fill-rule:nonzero;stroke:none"
         id="path54" />
      <path
         d="m 7506.52,789.621 c 0,-6.91 -5.6,-12.512 -12.51,-12.512 -6.91,0 -12.51,5.602 -12.51,12.512 0,6.91 5.6,12.512 12.51,12.512 6.91,0 12.51,-5.602 12.51,-12.512"
         style="fill:#ffffff;fill-opacity:1;fill-rule:nonzero;stroke:none"
         id="path56" />
      <path
         d="m 7505.95,876.734 c 0,-6.91 -5.6,-12.507 -12.51,-12.507 -6.91,0 -12.51,5.597 -12.51,12.507 0,6.911 5.6,12.512 12.51,12.512 6.91,0 12.51,-5.601 12.51,-12.512"
         style="fill:#ffffff;fill-opacity:1;fill-rule:nonzero;stroke:none"
         id="path58" />
      <path
         d="m 7504.81,959.504 c 0,-6.227 -5.04,-11.274 -11.27,-11.274 -6.22,0 -11.27,5.047 -11.27,11.274 0,6.226 5.05,11.269 11.27,11.269 6.23,0 11.27,-5.043 11.27,-11.269"
         style="fill:#ffffff;fill-opacity:1;fill-rule:nonzero;stroke:none"
         id="path60" />
      <path
         d="m 7842.83,1043.38 c 0,-5.44 -4.41,-9.85 -9.85,-9.85 -5.44,0 -9.85,4.41 -9.85,9.85 0,5.44 4.41,9.85 9.85,9.85 5.44,0 9.85,-4.41 9.85,-9.85"
         style="fill:#ffffff;fill-opacity:1;fill-rule:nonzero;stroke:none"
         id="path62" />
      <path
         d="m 7501.41,1042.43 c 0,-4.09 -3.31,-7.4 -7.4,-7.4 -4.09,0 -7.4,3.31 -7.4,7.4 0,4.09 3.31,7.4 7.4,7.4 4.09,0 7.4,-3.31 7.4,-7.4"
         style="fill:#ffffff;fill-opacity:1;fill-rule:nonzero;stroke:none"
         id="path64" />
      <path
         d="m 7670.52,1128.98 c 0,-4.09 -3.32,-7.41 -7.4,-7.41 -4.09,0 -7.4,3.32 -7.4,7.41 0,4.08 3.31,7.4 7.4,7.4 4.08,0 7.4,-3.32 7.4,-7.4"
         style="fill:#ffffff;fill-opacity:1;fill-rule:nonzero;stroke:none"
         id="path66" />
      <path
         d="m 7925.45,620.32 c 0,-3.925 -3.18,-7.109 -7.11,-7.109 -3.93,0 -7.11,3.184 -7.11,7.109 0,3.926 3.18,7.11 7.11,7.11 3.93,0 7.11,-3.184 7.11,-7.11"
         style="fill:#ffffff;fill-opacity:1;fill-rule:nonzero;stroke:none"
         id="path68" />
      <path
         d="m 8092.7,790.953 c 0,-3.93 -3.19,-7.109 -7.11,-7.109 -3.93,0 -7.11,3.179 -7.11,7.109 0,3.926 3.18,7.11 7.11,7.11 3.92,0 7.11,-3.184 7.11,-7.11"
         style="fill:#ffffff;fill-opacity:1;fill-rule:nonzero;stroke:none"
         id="path70" />
      <path
         d="m 8174.49,959.602 c 0,-1.582 -1.28,-2.868 -2.86,-2.868 -1.58,0 -2.87,1.286 -2.87,2.868 0,1.586 1.29,2.871 2.87,2.871 1.58,0 2.86,-1.285 2.86,-2.871"
         style="fill:#ffffff;fill-opacity:1;fill-rule:nonzero;stroke:none"
         id="path72" />
      <path
         d="m 8596.78,960.02 c 0,-1.586 -1.28,-2.872 -2.87,-2.872 -1.58,0 -2.86,1.286 -2.86,2.872 0,1.582 1.28,2.867 2.86,2.867 1.59,0 2.87,-1.285 2.87,-2.867"
         style="fill:#ffffff;fill-opacity:1;fill-rule:nonzero;stroke:none"
         id="path74" />
      <path
         d="m 8004.44,620.73 c 0,-1.582 -1.29,-2.863 -2.88,-2.863 -1.58,0 -2.86,1.281 -2.86,2.863 0,1.583 1.28,2.872 2.86,2.872 1.59,0 2.88,-1.289 2.88,-2.872"
         style="fill:#ffffff;fill-opacity:1;fill-rule:nonzero;stroke:none"
         id="path76" />
      <path
         d="m 9106.16,1042.95 c 0,-1.97 -1.6,-3.57 -3.57,-3.57 -1.97,0 -3.57,1.6 -3.57,3.57 0,1.98 1.6,3.57 3.57,3.57 1.97,0 3.57,-1.59 3.57,-3.57"
         style="fill:#ffffff;fill-opacity:1;fill-rule:nonzero;stroke:none"
         id="path78" />
      <path
         d="m 9275.82,959.137 c 0,-1.973 -1.6,-3.574 -3.57,-3.574 -1.97,0 -3.57,1.601 -3.57,3.574 0,1.968 1.6,3.57 3.57,3.57 1.97,0 3.57,-1.602 3.57,-3.57"
         style="fill:#ffffff;fill-opacity:1;fill-rule:nonzero;stroke:none"
         id="path80" />
      <path
         d="m 9358.89,959.137 c 0,-1.973 -1.6,-3.571 -3.57,-3.571 -1.97,0 -3.57,1.598 -3.57,3.571 0,1.972 1.6,3.57 3.57,3.57 1.97,0 3.57,-1.598 3.57,-3.57"
         style="fill:#ffffff;fill-opacity:1;fill-rule:nonzero;stroke:none"
         id="path82" />
      <path
         d="m 9444.74,876.844 c 0,-1.969 -1.6,-3.571 -3.57,-3.571 -1.97,0 -3.57,1.602 -3.57,3.571 0,1.972 1.6,3.574 3.57,3.574 1.97,0 3.57,-1.602 3.57,-3.574"
         style="fill:#ffffff;fill-opacity:1;fill-rule:nonzero;stroke:none"
         id="path84" />
      <path
         d="m 8348.35,959.344 c 0,-4.156 -3.37,-7.528 -7.53,-7.528 -4.15,0 -7.53,3.372 -7.53,7.528 0,4.16 3.38,7.527 7.53,7.527 4.16,0 7.53,-3.367 7.53,-7.527"
         style="fill:#ffffff;fill-opacity:1;fill-rule:nonzero;stroke:none"
         id="path86" />
      <path
         d="m 8432.3,960.258 c 0,-4.156 -3.37,-7.528 -7.53,-7.528 -4.16,0 -7.53,3.372 -7.53,7.528 0,4.156 3.37,7.527 7.53,7.527 4.16,0 7.53,-3.371 7.53,-7.527"
         style="fill:#ffffff;fill-opacity:1;fill-rule:nonzero;stroke:none"
         id="path88" />
      <path
         d="m 8518.09,959.137 c 0,-4.16 -3.37,-7.528 -7.53,-7.528 -4.16,0 -7.53,3.368 -7.53,7.528 0,4.156 3.37,7.523 7.53,7.523 4.16,0 7.53,-3.367 7.53,-7.523"
         style="fill:#ffffff;fill-opacity:1;fill-rule:nonzero;stroke:none"
         id="path90" />
      <path
         d="m 8690.66,959.973 c 0,-5.379 -4.36,-9.743 -9.74,-9.743 -5.39,0 -9.75,4.364 -9.75,9.743 0,5.375 4.36,9.742 9.75,9.742 5.38,0 9.74,-4.367 9.74,-9.742"
         style="fill:#ffffff;fill-opacity:1;fill-rule:nonzero;stroke:none"
         id="path92" />
      <path
         d="m 8690.66,876.66 c 0,-5.375 -4.36,-9.738 -9.74,-9.738 -5.39,0 -9.75,4.363 -9.75,9.738 0,5.383 4.36,9.742 9.75,9.742 5.38,0 9.74,-4.359 9.74,-9.742"
         style="fill:#ffffff;fill-opacity:1;fill-rule:nonzero;stroke:none"
         id="path94" />
      <path
         d="m 8687.56,1042.61 c 0,-4.16 -3.38,-7.53 -7.53,-7.53 -4.16,0 -7.53,3.37 -7.53,7.53 0,4.16 3.37,7.52 7.53,7.52 4.15,0 7.53,-3.36 7.53,-7.52"
         style="fill:#ffffff;fill-opacity:1;fill-rule:nonzero;stroke:none"
         id="path96" />
      <path
         d="m 9027.86,1129.53 c 0,-4.77 -3.87,-8.64 -8.65,-8.64 -4.77,0 -8.65,3.87 -8.65,8.64 0,4.78 3.88,8.65 8.65,8.65 4.78,0 8.65,-3.87 8.65,-8.65"
         style="fill:#ffffff;fill-opacity:1;fill-rule:nonzero;stroke:none"
         id="path98" />
      <path
         d="m 8774.76,1129.48 c 0,-6.32 -5.12,-11.43 -11.44,-11.43 -6.32,0 -11.44,5.11 -11.44,11.43 0,6.32 5.12,11.45 11.44,11.45 6.32,0 11.44,-5.13 11.44,-11.45"
         style="fill:#ffffff;fill-opacity:1;fill-rule:nonzero;stroke:none"
         id="path100" />
      <path
         d="m 9112,959.645 c 0,-5.047 -4.09,-9.145 -9.14,-9.145 -5.05,0 -9.15,4.098 -9.15,9.145 0,5.05 4.1,9.14 9.15,9.14 5.05,0 9.14,-4.09 9.14,-9.14"
         style="fill:#ffffff;fill-opacity:1;fill-rule:nonzero;stroke:none"
         id="path102" />
      <path
         d="m 9192.26,959.391 c 0,-3.789 -3.07,-6.86 -6.86,-6.86 -3.78,0 -6.85,3.071 -6.85,6.86 0,3.785 3.07,6.855 6.85,6.855 3.79,0 6.86,-3.07 6.86,-6.855"
         style="fill:#ffffff;fill-opacity:1;fill-rule:nonzero;stroke:none"
         id="path104" />
      <path
         d="m 7504.86,367.988 c 0,-6.91 -5.6,-12.508 -12.51,-12.508 -6.91,0 -12.51,5.598 -12.51,12.508 0,6.91 5.6,12.5 12.51,12.5 6.91,0 12.51,-5.59 12.51,-12.5"
         style="fill:#ffffff;fill-opacity:1;fill-rule:nonzero;stroke:none"
         id="path106" />
      <path
         d="m 7597.59,1043.07 c 0,-9.67 -7.84,-17.51 -17.51,-17.51 -9.67,0 -17.51,7.84 -17.51,17.51 0,9.67 7.84,17.51 17.51,17.51 9.67,0 17.51,-7.84 17.51,-17.51"
         style="fill:#ffffff;fill-opacity:1;fill-rule:nonzero;stroke:none"
         id="path108" />
      <path
         d="m 7769.67,1042.96 c 0,-11 -8.92,-19.92 -19.92,-19.92 -11,0 -19.92,8.92 -19.92,19.92 0,11.01 8.92,19.93 19.92,19.93 11,0 19.92,-8.92 19.92,-19.93"
         style="fill:#ffffff;fill-opacity:1;fill-rule:nonzero;stroke:none"
         id="path110" />
      <path
         d="m 7689.88,1043.26 c 0,-14.83 -12.02,-26.85 -26.85,-26.85 -14.83,0 -26.85,12.02 -26.85,26.85 0,14.83 12.02,26.85 26.85,26.85 14.83,0 26.85,-12.02 26.85,-26.85"
         style="fill:#ffffff;fill-opacity:1;fill-rule:nonzero;stroke:none"
         id="path112" />
      <path
         d="m 7611.46,960.641 c 0,-17.157 -13.91,-31.063 -31.07,-31.063 -17.15,0 -31.06,13.906 -31.06,31.063 0,17.16 13.91,31.066 31.06,31.066 17.16,0 31.07,-13.906 31.07,-31.066"
         style="fill:#ffffff;fill-opacity:1;fill-rule:nonzero;stroke:none"
         id="path114" />
      <path
         d="m 7609.3,368.191 c 0,-16.089 -13.04,-29.132 -29.13,-29.132 -16.09,0 -29.13,13.043 -29.13,29.132 0,16.09 13.04,29.129 29.13,29.129 16.09,0 29.13,-13.039 29.13,-29.129"
         style="fill:#ffffff;fill-opacity:1;fill-rule:nonzero;stroke:none"
         id="path116" />
      <path
         d="m 7862.53,281.75 c 0,-16.711 -13.56,-30.27 -30.28,-30.27 -16.73,0 -30.28,13.559 -30.28,30.27 0,16.73 13.55,30.289 30.28,30.289 16.72,0 30.28,-13.559 30.28,-30.289"
         style="fill:#ffffff;fill-opacity:1;fill-rule:nonzero;stroke:none"
         id="path118" />
      <path
         d="m 7780.56,281.75 c 0,-16.711 -13.56,-30.27 -30.28,-30.27 -16.73,0 -30.28,13.559 -30.28,30.27 0,16.73 13.55,30.289 30.28,30.289 16.72,0 30.28,-13.559 30.28,-30.289"
         style="fill:#ffffff;fill-opacity:1;fill-rule:nonzero;stroke:none"
         id="path120" />
      <path
         d="m 7612.74,878.277 c 0,-18.675 -15.14,-33.816 -33.82,-33.816 -18.67,0 -33.81,15.141 -33.81,33.816 0,18.676 15.14,33.821 33.81,33.821 18.68,0 33.82,-15.145 33.82,-33.821"
         style="fill:#ffffff;fill-opacity:1;fill-rule:nonzero;stroke:none"
         id="path122" />
      <path
         d="m 7613.95,790.223 c 0,-18.676 -15.14,-33.817 -33.82,-33.817 -18.68,0 -33.81,15.141 -33.81,33.817 0,18.675 15.13,33.816 33.81,33.816 18.68,0 33.82,-15.141 33.82,-33.816"
         style="fill:#ffffff;fill-opacity:1;fill-rule:nonzero;stroke:none"
         id="path124" />
      <path
         d="m 7614.55,706.992 c 0,-18.676 -15.14,-33.816 -33.82,-33.816 -18.67,0 -33.81,15.14 -33.81,33.816 0,18.68 15.14,33.817 33.81,33.817 18.68,0 33.82,-15.137 33.82,-33.817"
         style="fill:#ffffff;fill-opacity:1;fill-rule:nonzero;stroke:none"
         id="path126" />
      <path
         d="m 7614.55,621.355 c 0,-18.683 -15.14,-33.82 -33.82,-33.82 -18.67,0 -33.81,15.137 -33.81,33.82 0,18.672 15.14,33.813 33.81,33.813 18.68,0 33.82,-15.141 33.82,-33.813"
         style="fill:#ffffff;fill-opacity:1;fill-rule:nonzero;stroke:none"
         id="path128" />
      <path
         d="m 7613.95,538.121 c 0,-18.68 -15.14,-33.816 -33.82,-33.816 -18.68,0 -33.81,15.136 -33.81,33.816 0,18.672 15.13,33.82 33.81,33.82 18.68,0 33.82,-15.148 33.82,-33.82"
         style="fill:#ffffff;fill-opacity:1;fill-rule:nonzero;stroke:none"
         id="path130" />
      <path
         d="m 7614.55,452.477 c 0,-18.672 -15.14,-33.817 -33.82,-33.817 -18.67,0 -33.81,15.145 -33.81,33.817 0,18.671 15.14,33.82 33.81,33.82 18.68,0 33.82,-15.149 33.82,-33.82"
         style="fill:#ffffff;fill-opacity:1;fill-rule:nonzero;stroke:none"
         id="path132" />
      <path
         d="m 7866.65,451.266 c 0,-18.672 -15.14,-33.809 -33.81,-33.809 -18.68,0 -33.82,15.137 -33.82,33.809 0,18.683 15.14,33.82 33.82,33.82 18.67,0 33.81,-15.137 33.81,-33.82"
         style="fill:#ffffff;fill-opacity:1;fill-rule:nonzero;stroke:none"
         id="path134" />
      <path
         d="m 7704.27,960.164 c 0,-22.91 -18.57,-41.48 -41.48,-41.48 -22.91,0 -41.48,18.57 -41.48,41.48 0,22.902 18.57,41.476 41.48,41.476 22.91,0 41.48,-18.574 41.48,-41.476"
         style="fill:#ffffff;fill-opacity:1;fill-rule:nonzero;stroke:none"
         id="path136" />
      <path
         d="m 7709.2,877.43 c 0,-25.664 -20.8,-46.473 -46.47,-46.473 -25.66,0 -46.47,20.809 -46.47,46.473 0,25.664 20.81,46.465 46.47,46.465 25.67,0 46.47,-20.801 46.47,-46.465"
         style="fill:#ffffff;fill-opacity:1;fill-rule:nonzero;stroke:none"
         id="path138" />
      <path
         d="m 7709.52,790.691 c 0,-25.664 -20.81,-46.472 -46.47,-46.472 -25.66,0 -46.47,20.808 -46.47,46.472 0,25.664 20.81,46.469 46.47,46.469 25.66,0 46.47,-20.805 46.47,-46.469"
         style="fill:#ffffff;fill-opacity:1;fill-rule:nonzero;stroke:none"
         id="path140" />
      <path
         d="m 7709.52,707.121 c 0,-25.664 -20.81,-46.469 -46.47,-46.469 -25.66,0 -46.47,20.805 -46.47,46.469 0,25.664 20.81,46.469 46.47,46.469 25.66,0 46.47,-20.805 46.47,-46.469"
         style="fill:#ffffff;fill-opacity:1;fill-rule:nonzero;stroke:none"
         id="path142" />
      <path
         d="m 7709.83,621.336 c 0,-25.664 -20.8,-46.465 -46.46,-46.465 -25.67,0 -46.47,20.801 -46.47,46.465 0,25.664 20.8,46.469 46.47,46.469 25.66,0 46.46,-20.805 46.46,-46.469"
         style="fill:#ffffff;fill-opacity:1;fill-rule:nonzero;stroke:none"
         id="path144" />
      <path
         d="m 7709.52,538.406 c 0,-25.664 -20.81,-46.476 -46.47,-46.476 -25.66,0 -46.47,20.812 -46.47,46.476 0,25.664 20.81,46.465 46.47,46.465 25.66,0 46.47,-20.801 46.47,-46.465"
         style="fill:#ffffff;fill-opacity:1;fill-rule:nonzero;stroke:none"
         id="path146" />
      <path
         d="m 7710.1,451.375 c 0,-26.172 -21.22,-47.395 -47.4,-47.395 -26.17,0 -47.39,21.223 -47.39,47.395 0,26.172 21.22,47.391 47.39,47.391 26.18,0 47.4,-21.219 47.4,-47.391"
         style="fill:#ffffff;fill-opacity:1;fill-rule:nonzero;stroke:none"
         id="path148" />
      <path
         d="m 7704.96,368.102 c 0,-23.364 -18.93,-42.282 -42.28,-42.282 -23.36,0 -42.29,18.918 -42.29,42.282 0,23.347 18.93,42.285 42.29,42.285 23.35,0 42.28,-18.938 42.28,-42.285"
         style="fill:#ffffff;fill-opacity:1;fill-rule:nonzero;stroke:none"
         id="path150" />
      <path
         d="m 7791.7,450.406 c 0,-23.359 -18.93,-42.293 -42.29,-42.293 -23.35,0 -42.28,18.934 -42.28,42.293 0,23.352 18.93,42.285 42.28,42.285 23.36,0 42.29,-18.933 42.29,-42.285"
         style="fill:#ffffff;fill-opacity:1;fill-rule:nonzero;stroke:none"
         id="path152" />
      <path
         d="m 7793.48,367.031 c 0,-24.441 -19.81,-44.242 -44.23,-44.242 -24.44,0 -44.24,19.801 -44.24,44.242 0,24.418 19.8,44.227 44.24,44.227 24.42,0 44.23,-19.809 44.23,-44.227"
         style="fill:#ffffff;fill-opacity:1;fill-rule:nonzero;stroke:none"
         id="path154" />
      <path
         d="m 7875.06,368.762 c 0,-23.563 -19.1,-42.653 -42.65,-42.653 -23.55,0 -42.64,19.09 -42.64,42.641 0,23.551 19.09,42.645 42.64,42.645 23.55,0 42.65,-19.094 42.65,-42.633"
         style="fill:#ffffff;fill-opacity:1;fill-rule:nonzero;stroke:none"
         id="path156" />
      <path
         d="m 7960.87,367.488 c 0,-22.988 -18.64,-41.617 -41.63,-41.617 -22.99,-0.012 -41.62,18.629 -41.62,41.609 0,22.989 18.64,41.629 41.62,41.629 22.99,0 41.63,-18.629 41.63,-41.621"
         style="fill:#ffffff;fill-opacity:1;fill-rule:nonzero;stroke:none"
         id="path158" />
      <path
         d="m 8042.04,368.859 c 0,-21.5 -17.44,-38.929 -38.94,-38.929 -21.51,0 -38.94,17.429 -38.94,38.929 0,21.512 17.43,38.942 38.94,38.942 21.5,0 38.94,-17.43 38.94,-38.942"
         style="fill:#ffffff;fill-opacity:1;fill-rule:nonzero;stroke:none"
         id="path160" />
      <path
         d="m 7788.62,537.281 c 0,-21.258 -17.24,-38.504 -38.51,-38.504 -21.27,0 -38.51,17.246 -38.51,38.504 0,21.27 17.24,38.516 38.51,38.516 21.27,0 38.51,-17.246 38.51,-38.516"
         style="fill:#ffffff;fill-opacity:1;fill-rule:nonzero;stroke:none"
         id="path162" />
      <path
         d="m 7788.3,620.223 c 0,-21.27 -17.24,-38.508 -38.51,-38.508 -21.26,0 -38.5,17.238 -38.5,38.508 0,21.269 17.24,38.507 38.5,38.507 21.27,0 38.51,-17.238 38.51,-38.507"
         style="fill:#ffffff;fill-opacity:1;fill-rule:nonzero;stroke:none"
         id="path164" />
      <path
         d="m 7788.3,707.273 c 0,-21.265 -17.24,-38.507 -38.51,-38.507 -21.26,0 -38.5,17.242 -38.5,38.507 0,21.27 17.24,38.508 38.5,38.508 21.27,0 38.51,-17.238 38.51,-38.508"
         style="fill:#ffffff;fill-opacity:1;fill-rule:nonzero;stroke:none"
         id="path166" />
      <path
         d="m 7788.3,790.211 c 0,-21.27 -17.24,-38.512 -38.51,-38.512 -21.26,0 -38.5,17.242 -38.5,38.512 0,21.266 17.24,38.508 38.5,38.508 21.27,0 38.51,-17.242 38.51,-38.508"
         style="fill:#ffffff;fill-opacity:1;fill-rule:nonzero;stroke:none"
         id="path168" />
      <path
         d="m 7787.99,876.629 c 0,-21.266 -17.25,-38.508 -38.51,-38.508 -21.27,0 -38.51,17.242 -38.51,38.508 0,21.269 17.24,38.508 38.51,38.508 21.26,0 38.51,-17.239 38.51,-38.508"
         style="fill:#ffffff;fill-opacity:1;fill-rule:nonzero;stroke:none"
         id="path170" />
      <path
         d="m 7786.23,959.262 c 0,-20.129 -16.32,-36.449 -36.45,-36.449 -20.12,0 -36.44,16.32 -36.44,36.449 0,20.121 16.32,36.437 36.44,36.437 20.13,0 36.45,-16.316 36.45,-36.437"
         style="fill:#ffffff;fill-opacity:1;fill-rule:nonzero;stroke:none"
         id="path172" />
      <path
         d="m 7689.23,282.199 c 0,-14.828 -12.03,-26.847 -26.86,-26.847 -14.83,0 -26.86,12.019 -26.86,26.847 0,14.84 12.03,26.86 26.86,26.86 14.83,0 26.86,-12.02 26.86,-26.86"
         style="fill:#ffffff;fill-opacity:1;fill-rule:nonzero;stroke:none"
         id="path174" />
      <path
         d="m 7597.75,282.219 c 0,-9.489 -7.7,-17.188 -17.2,-17.188 -9.49,0 -17.19,7.699 -17.19,17.188 0,9.511 7.7,17.203 17.19,17.203 9.5,0 17.2,-7.692 17.2,-17.203"
         style="fill:#ffffff;fill-opacity:1;fill-rule:nonzero;stroke:none"
         id="path176" />
      <path
         d="m 7853.59,537.898 c 0,-11.457 -9.29,-20.742 -20.74,-20.742 -11.45,0 -20.74,9.285 -20.74,20.742 0,11.446 9.29,20.731 20.74,20.731 11.45,0 20.74,-9.285 20.74,-20.731"
         style="fill:#ffffff;fill-opacity:1;fill-rule:nonzero;stroke:none"
         id="path178" />
      <path
         d="m 7852.28,620.359 c 0,-10.644 -8.63,-19.269 -19.26,-19.269 -10.65,0 -19.28,8.625 -19.28,19.269 0,10.633 8.63,19.266 19.28,19.266 10.63,0 19.26,-8.633 19.26,-19.266"
         style="fill:#ffffff;fill-opacity:1;fill-rule:nonzero;stroke:none"
         id="path180" />
      <path
         d="m 7851.96,707.551 c 0,-10.641 -8.63,-19.27 -19.27,-19.27 -10.65,0 -19.27,8.629 -19.27,19.27 0,10.64 8.62,19.265 19.27,19.265 10.64,0 19.27,-8.625 19.27,-19.265"
         style="fill:#ffffff;fill-opacity:1;fill-rule:nonzero;stroke:none"
         id="path182" />
      <path
         d="m 7851.96,790.828 c 0,-10.64 -8.63,-19.269 -19.27,-19.269 -10.65,0 -19.27,8.629 -19.27,19.269 0,10.645 8.62,19.27 19.27,19.27 10.64,0 19.27,-8.625 19.27,-19.27"
         style="fill:#ffffff;fill-opacity:1;fill-rule:nonzero;stroke:none"
         id="path184" />
      <path
         d="m 7852.28,876.719 c 0,-10.645 -8.63,-19.266 -19.26,-19.266 -10.65,0 -19.28,8.621 -19.28,19.266 0,10.64 8.63,19.269 19.28,19.269 10.63,0 19.26,-8.629 19.26,-19.269"
         style="fill:#ffffff;fill-opacity:1;fill-rule:nonzero;stroke:none"
         id="path186" />
      <path
         d="m 7849.95,959.492 c 0,-9.445 -7.66,-17.105 -17.11,-17.105 -9.45,0 -17.11,7.66 -17.11,17.105 0,9.453 7.66,17.11 17.11,17.11 9.45,0 17.11,-7.657 17.11,-17.11"
         style="fill:#ffffff;fill-opacity:1;fill-rule:nonzero;stroke:none"
         id="path188" />
      <path
         d="m 7950.58,451.188 c 0,-17.313 -14.03,-31.356 -31.35,-31.356 -17.31,0 -31.35,14.043 -31.35,31.356 0,17.316 14.04,31.347 31.35,31.347 17.32,0 31.35,-14.031 31.35,-31.347"
         style="fill:#ffffff;fill-opacity:1;fill-rule:nonzero;stroke:none"
         id="path190" />
      <path
         d="m 7948.07,281.621 c 0,-16.41 -13.3,-29.699 -29.7,-29.699 -16.4,0 -29.71,13.289 -29.71,29.699 0,16.399 13.31,29.699 29.71,29.699 16.4,0 29.7,-13.3 29.7,-29.699"
         style="fill:#ffffff;fill-opacity:1;fill-rule:nonzero;stroke:none"
         id="path192" />
      <path
         d="m 8030.97,451.258 c 0,-15.938 -12.92,-28.867 -28.86,-28.867 -15.94,0 -28.86,12.929 -28.86,28.867 0,15.937 12.92,28.855 28.86,28.855 15.94,0 28.86,-12.918 28.86,-28.855"
         style="fill:#ffffff;fill-opacity:1;fill-rule:nonzero;stroke:none"
         id="path194" />
      <path
         d="m 8030.17,281.09 c 0,-15.328 -12.43,-27.75 -27.76,-27.75 -15.32,0 -27.75,12.422 -27.75,27.75 0,15.332 12.43,27.75 27.75,27.75 15.33,0 27.76,-12.418 27.76,-27.75"
         style="fill:#ffffff;fill-opacity:1;fill-rule:nonzero;stroke:none"
         id="path196" />
      <path
         d="m 8103.93,537.566 c 0,-10.089 -8.19,-18.273 -18.28,-18.273 -10.1,0 -18.28,8.184 -18.28,18.273 0,10.098 8.18,18.282 18.28,18.282 10.09,0 18.28,-8.184 18.28,-18.282"
         style="fill:#ffffff;fill-opacity:1;fill-rule:nonzero;stroke:none"
         id="path198" />
      <path
         d="m 8105.49,281.789 c 0,-11.598 -9.41,-21 -21.01,-21 -11.61,0 -21.01,9.402 -21.01,21 0,11.609 9.4,21.012 21.01,21.012 11.6,0 21.01,-9.403 21.01,-21.012"
         style="fill:#ffffff;fill-opacity:1;fill-rule:nonzero;stroke:none"
         id="path200" />
      <path
         d="m 8193.5,281.789 c 0,-11.598 -9.41,-21 -21.01,-21 -11.6,0 -21,9.402 -21,21 0,11.609 9.4,21.012 21,21.012 11.6,0 21.01,-9.403 21.01,-21.012"
         style="fill:#ffffff;fill-opacity:1;fill-rule:nonzero;stroke:none"
         id="path202" />
      <path
         d="m 8110.45,451.805 c 0,-13.555 -10.99,-24.551 -24.56,-24.551 -13.56,0 -24.55,10.996 -24.55,24.551 0,13.562 10.99,24.558 24.55,24.558 13.57,0 24.56,-10.996 24.56,-24.558"
         style="fill:#ffffff;fill-opacity:1;fill-rule:nonzero;stroke:none"
         id="path204" />
      <path
         d="m 8117.27,367.23 c 0,-17.359 -14.07,-31.429 -31.43,-31.429 -17.36,0 -31.43,14.07 -31.43,31.429 0,17.36 14.07,31.43 31.43,31.43 17.36,0 31.43,-14.07 31.43,-31.43"
         style="fill:#ffffff;fill-opacity:1;fill-rule:nonzero;stroke:none"
         id="path206" />
      <path
         d="m 8184.46,876.52 c 0,-7.079 -5.75,-12.817 -12.83,-12.817 -7.08,0 -12.82,5.738 -12.82,12.817 0,7.085 5.74,12.824 12.82,12.824 7.08,0 12.83,-5.739 12.83,-12.824"
         style="fill:#ffffff;fill-opacity:1;fill-rule:nonzero;stroke:none"
         id="path208" />
      <path
         d="m 8609.58,876.926 c 0,-8.692 -7.05,-15.742 -15.74,-15.742 -8.7,0 -15.75,7.05 -15.75,15.742 0,8.691 7.05,15.742 15.75,15.742 8.69,0 15.74,-7.051 15.74,-15.742"
         style="fill:#ffffff;fill-opacity:1;fill-rule:nonzero;stroke:none"
         id="path210" />
      <path
         d="m 8699.48,790.578 c 0,-10.66 -8.64,-19.297 -19.29,-19.297 -10.66,0 -19.3,8.637 -19.3,19.297 0,10.652 8.64,19.293 19.3,19.293 10.65,0 19.29,-8.641 19.29,-19.293"
         style="fill:#ffffff;fill-opacity:1;fill-rule:nonzero;stroke:none"
         id="path212" />
      <path
         d="m 9039.04,1043.25 c 0,-10.43 -8.45,-18.88 -18.88,-18.88 -10.43,0 -18.89,8.46 -18.89,18.89 0,10.43 8.45,18.88 18.88,18.88 10.43,0 18.89,-8.46 18.89,-18.89"
         style="fill:#ffffff;fill-opacity:1;fill-rule:nonzero;stroke:none"
         id="path214" />
      <path
         d="m 8194.43,790.098 c 0,-12.325 -10,-22.313 -22.32,-22.313 -12.33,0 -22.32,9.988 -22.32,22.313 0,12.332 9.99,22.32 22.32,22.32 12.32,0 22.32,-9.988 22.32,-22.32"
         style="fill:#ffffff;fill-opacity:1;fill-rule:nonzero;stroke:none"
         id="path216" />
      <path
         d="m 8286.54,706.777 c 0,-18.156 -14.73,-32.879 -32.89,-32.879 -18.15,0 -32.88,14.723 -32.88,32.879 0,18.164 14.73,32.887 32.88,32.887 18.16,0 32.89,-14.723 32.89,-32.887"
         style="fill:#ffffff;fill-opacity:1;fill-rule:nonzero;stroke:none"
         id="path218" />
      <path
         d="m 8287.96,620.895 c 0,-18.165 -14.73,-32.879 -32.88,-32.879 -18.17,0 -32.89,14.714 -32.89,32.879 0,18.156 14.72,32.882 32.89,32.882 18.15,0 32.88,-14.726 32.88,-32.882"
         style="fill:#ffffff;fill-opacity:1;fill-rule:nonzero;stroke:none"
         id="path220" />
      <path
         d="m 8625.81,790.723 c 0,-17.66 -14.32,-31.981 -31.98,-31.981 -17.67,0 -31.99,14.321 -31.99,31.981 0,17.668 14.32,31.984 31.99,31.984 17.66,0 31.98,-14.316 31.98,-31.984"
         style="fill:#ffffff;fill-opacity:1;fill-rule:nonzero;stroke:none"
         id="path222" />
      <path
         d="m 8367.69,876.074 c 0,-14.672 -11.9,-26.566 -26.56,-26.566 -14.68,0 -26.57,11.894 -26.57,26.566 0,14.668 11.89,26.563 26.57,26.563 14.66,0 26.56,-11.895 26.56,-26.563"
         style="fill:#ffffff;fill-opacity:1;fill-rule:nonzero;stroke:none"
         id="path224" />
      <path
         d="m 8275.06,877.141 c 0,-11.457 -9.29,-20.743 -20.74,-20.743 -11.46,0 -20.74,9.286 -20.74,20.743 0,11.453 9.28,20.742 20.74,20.742 11.45,0 20.74,-9.289 20.74,-20.742"
         style="fill:#ffffff;fill-opacity:1;fill-rule:nonzero;stroke:none"
         id="path226" />
      <path
         d="m 8534.91,875.898 c 0,-12.929 -10.48,-23.41 -23.41,-23.41 -12.93,0 -23.41,10.481 -23.41,23.41 0,12.93 10.48,23.411 23.41,23.411 12.93,0 23.41,-10.481 23.41,-23.411"
         style="fill:#ffffff;fill-opacity:1;fill-rule:nonzero;stroke:none"
         id="path228" />
      <path
         d="m 8451.49,877.012 c 0,-14.676 -11.9,-26.571 -26.58,-26.571 -14.67,0 -26.57,11.895 -26.57,26.571 0,14.676 11.9,26.57 26.57,26.57 14.68,0 26.58,-11.894 26.58,-26.57"
         style="fill:#ffffff;fill-opacity:1;fill-rule:nonzero;stroke:none"
         id="path230" />
      <path
         d="m 8193.25,707.297 c 0,-11.918 -9.66,-21.578 -21.58,-21.578 -11.91,0 -21.57,9.66 -21.57,21.578 0,11.914 9.66,21.578 21.57,21.578 11.92,0 21.58,-9.664 21.58,-21.578"
         style="fill:#ffffff;fill-opacity:1;fill-rule:nonzero;stroke:none"
         id="path232" />
      <path
         d="m 8195.48,620.477 c 0,-12.668 -10.27,-22.93 -22.93,-22.93 -12.66,0 -22.93,10.262 -22.93,22.93 0,12.656 10.27,22.929 22.93,22.929 12.66,0 22.93,-10.273 22.93,-22.929"
         style="fill:#ffffff;fill-opacity:1;fill-rule:nonzero;stroke:none"
         id="path234" />
      <path
         d="m 8205.34,538.199 c 0,-19.011 -15.41,-34.422 -34.42,-34.422 -19.01,0 -34.42,15.411 -34.42,34.422 0,19.016 15.41,34.426 34.42,34.426 19.01,0 34.42,-15.41 34.42,-34.426"
         style="fill:#ffffff;fill-opacity:1;fill-rule:nonzero;stroke:none"
         id="path236" />
      <path
         d="m 8208.1,366.59 c 0,-20.168 -16.34,-36.52 -36.52,-36.52 -20.16,0 -36.51,16.352 -36.51,36.52 0,20.16 16.35,36.523 36.51,36.523 20.18,0 36.52,-16.363 36.52,-36.523"
         style="fill:#ffffff;fill-opacity:1;fill-rule:nonzero;stroke:none"
         id="path238" />
      <path
         d="m 8213.95,449.852 c 0,-22.707 -18.4,-41.106 -41.1,-41.106 -22.7,0 -41.1,18.399 -41.1,41.106 0,22.703 18.4,41.101 41.1,41.101 22.7,0 41.1,-18.398 41.1,-41.101"
         style="fill:#ffffff;fill-opacity:1;fill-rule:nonzero;stroke:none"
         id="path240" />
      <path
         d="m 8297.37,367.781 c 0,-23.453 -19,-42.453 -42.45,-42.453 -23.44,0 -42.45,19 -42.45,42.453 0,23.449 19.01,42.449 42.45,42.449 23.45,0 42.45,-19 42.45,-42.449"
         style="fill:#ffffff;fill-opacity:1;fill-rule:nonzero;stroke:none"
         id="path242" />
      <path
         d="m 8636.31,367.07 c 0,-23.449 -19.01,-42.449 -42.46,-42.449 -23.44,0 -42.45,19 -42.45,42.449 0,23.442 19.01,42.45 42.45,42.45 23.45,0 42.46,-19.008 42.46,-42.45"
         style="fill:#ffffff;fill-opacity:1;fill-rule:nonzero;stroke:none"
         id="path244" />
      <path
         d="m 8556.1,367.02 c 0,-23.872 -19.34,-43.211 -43.21,-43.211 -23.86,0 -43.21,19.339 -43.21,43.211 0,23.871 19.35,43.21 43.21,43.21 23.87,0 43.21,-19.339 43.21,-43.21"
         style="fill:#ffffff;fill-opacity:1;fill-rule:nonzero;stroke:none"
         id="path246" />
      <path
         d="m 8468.08,367.781 c 0,-23.453 -19.01,-42.453 -42.45,-42.453 -23.44,0 -42.45,19 -42.45,42.453 0,23.449 19.01,42.449 42.45,42.449 23.44,0 42.45,-19 42.45,-42.449"
         style="fill:#ffffff;fill-opacity:1;fill-rule:nonzero;stroke:none"
         id="path248" />
      <path
         d="m 8385.51,369.73 c 0,-24.378 -19.77,-44.16 -44.16,-44.16 -24.39,0 -44.16,19.782 -44.16,44.16 0,24.399 19.77,44.172 44.16,44.172 24.39,0 44.16,-19.773 44.16,-44.172"
         style="fill:#ffffff;fill-opacity:1;fill-rule:nonzero;stroke:none"
         id="path250" />
      <path
         d="m 8284.17,282.031 c 0,-16.011 -12.97,-28.972 -28.97,-28.972 -15.99,0 -28.96,12.961 -28.96,28.972 0,15.989 12.97,28.957 28.96,28.957 16,0 28.97,-12.968 28.97,-28.957"
         style="fill:#ffffff;fill-opacity:1;fill-rule:nonzero;stroke:none"
         id="path252" />
      <path
         d="m 8372.67,282.141 c 0,-17.672 -14.33,-32 -32,-32 -17.67,0 -32,14.328 -32,32 0,17.668 14.33,32 32,32 17.67,0 32,-14.332 32,-32"
         style="fill:#ffffff;fill-opacity:1;fill-rule:nonzero;stroke:none"
         id="path254" />
      <path
         d="m 8451.5,282.629 c 0,-14.789 -11.99,-26.789 -26.78,-26.789 -14.8,-0.012 -26.79,11.98 -26.79,26.781 0,14.801 11.99,26.801 26.78,26.801 14.8,0 26.79,-11.992 26.79,-26.793"
         style="fill:#ffffff;fill-opacity:1;fill-rule:nonzero;stroke:none"
         id="path256" />
      <path
         d="m 8536.53,281.98 c 0,-14.8 -11.99,-26.8 -26.78,-26.8 -14.8,-0.008 -26.79,11.98 -26.79,26.789 0,14.793 11.99,26.801 26.78,26.801 14.8,0 26.79,-12 26.79,-26.79"
         style="fill:#ffffff;fill-opacity:1;fill-rule:nonzero;stroke:none"
         id="path258" />
      <path
         d="m 8619.4,281.762 c 0,-13.961 -11.32,-25.282 -25.28,-25.293 -13.96,0 -25.27,11.32 -25.27,25.281 0,13.969 11.31,25.289 25.27,25.301 13.96,0 25.28,-11.321 25.28,-25.289"
         style="fill:#ffffff;fill-opacity:1;fill-rule:nonzero;stroke:none"
         id="path260" />
      <path
         d="m 8958.05,282.078 c 0,-13.969 -11.31,-25.297 -25.27,-25.297 -13.96,-0.011 -25.28,11.309 -25.28,25.278 -0.01,13.961 11.31,25.293 25.27,25.293 13.96,0 25.28,-11.313 25.28,-25.274"
         style="fill:#ffffff;fill-opacity:1;fill-rule:nonzero;stroke:none"
         id="path262" />
      <path
         d="m 9044.4,281.148 c 0,-13.957 -11.32,-25.277 -25.28,-25.277 -13.96,-0.012 -25.27,11.301 -25.27,25.27 -0.01,13.961 11.31,25.289 25.27,25.289 13.96,0 25.28,-11.321 25.28,-25.282"
         style="fill:#ffffff;fill-opacity:1;fill-rule:nonzero;stroke:none"
         id="path264" />
      <path
         d="m 9380.91,368.109 c 0,-13.961 -11.32,-25.281 -25.28,-25.289 -13.96,0 -25.28,11.321 -25.28,25.282 0,13.968 11.32,25.285 25.28,25.293 13.96,0 25.27,-11.317 25.28,-25.286"
         style="fill:#ffffff;fill-opacity:1;fill-rule:nonzero;stroke:none"
         id="path266" />
      <path
         d="m 8877.51,281.891 c 0,-15.36 -12.44,-27.813 -27.8,-27.813 -15.35,-0.008 -27.79,12.442 -27.8,27.801 0,15.351 12.45,27.801 27.8,27.812 15.35,0 27.8,-12.441 27.8,-27.8"
         style="fill:#ffffff;fill-opacity:1;fill-rule:nonzero;stroke:none"
         id="path268" />
      <path
         d="m 8705.23,368.262 c 0,-13.973 -11.32,-25.282 -25.28,-25.293 -13.96,0 -25.27,11.312 -25.27,25.281 -0.01,13.961 11.31,25.281 25.27,25.293 13.96,0 25.28,-11.324 25.28,-25.281"
         style="fill:#ffffff;fill-opacity:1;fill-rule:nonzero;stroke:none"
         id="path270" />
      <path
         d="m 9368.23,280.121 c 0,-7.34 -5.96,-13.293 -13.3,-13.293 -7.34,0 -13.29,5.953 -13.29,13.293 0,7.348 5.95,13.301 13.29,13.301 7.34,0 13.3,-5.953 13.3,-13.301"
         style="fill:#ffffff;fill-opacity:1;fill-rule:nonzero;stroke:none"
         id="path272" />
      <path
         d="m 9451.8,367.5 c 0,-5.512 -4.46,-9.969 -9.97,-9.969 -5.51,0 -9.97,4.457 -9.97,9.969 0,5.5 4.46,9.969 9.97,9.969 5.51,0 9.97,-4.469 9.97,-9.969"
         style="fill:#ffffff;fill-opacity:1;fill-rule:nonzero;stroke:none"
         id="path274" />
      <path
         d="m 8867.27,1129.85 c 0,-9.58 -7.76,-17.33 -17.33,-17.33 -9.57,0 -17.33,7.75 -17.33,17.33 0,9.57 7.76,17.33 17.33,17.33 9.57,0 17.33,-7.76 17.33,-17.33"
         style="fill:#ffffff;fill-opacity:1;fill-rule:nonzero;stroke:none"
         id="path276" />
      <path
         d="m 8948.69,1129.77 c 0,-8.73 -7.08,-15.82 -15.82,-15.82 -8.74,0 -15.82,7.09 -15.82,15.82 0,8.74 7.08,15.82 15.82,15.82 8.74,0 15.82,-7.08 15.82,-15.82"
         style="fill:#ffffff;fill-opacity:1;fill-rule:nonzero;stroke:none"
         id="path278" />
      <path
         d="m 8290.42,791.816 c 0,-19.796 -16.05,-35.843 -35.85,-35.843 -19.79,0 -35.84,16.047 -35.84,35.843 0,19.797 16.05,35.848 35.84,35.848 19.8,0 35.85,-16.051 35.85,-35.848"
         style="fill:#ffffff;fill-opacity:1;fill-rule:nonzero;stroke:none"
         id="path280" />
      <path
         d="m 8377.73,706.637 c 0,-19.793 -16.05,-35.844 -35.85,-35.844 -19.8,0 -35.84,16.051 -35.84,35.844 0,19.801 16.04,35.851 35.84,35.851 19.8,0 35.85,-16.05 35.85,-35.851"
         style="fill:#ffffff;fill-opacity:1;fill-rule:nonzero;stroke:none"
         id="path282" />
      <path
         d="m 8377.37,620.75 c 0,-19.797 -16.04,-35.84 -35.84,-35.84 -19.8,0 -35.85,16.043 -35.85,35.84 0,19.805 16.05,35.848 35.85,35.848 19.8,0 35.84,-16.043 35.84,-35.848"
         style="fill:#ffffff;fill-opacity:1;fill-rule:nonzero;stroke:none"
         id="path284" />
      <path
         d="m 8461.7,705.82 c 0,-21.035 -17.05,-38.078 -38.08,-38.078 -21.03,0 -38.09,17.043 -38.09,38.078 0,21.032 17.06,38.082 38.09,38.082 21.03,0 38.08,-17.05 38.08,-38.082"
         style="fill:#ffffff;fill-opacity:1;fill-rule:nonzero;stroke:none"
         id="path286" />
      <path
         d="m 8462.06,620.641 c 0,-21.024 -17.05,-38.075 -38.09,-38.075 -21.03,0 -38.08,17.051 -38.08,38.075 0,21.035 17.05,38.086 38.08,38.086 21.04,0 38.09,-17.051 38.09,-38.086"
         style="fill:#ffffff;fill-opacity:1;fill-rule:nonzero;stroke:none"
         id="path288" />
      <path
         d="m 8296.71,538.152 c 0,-23.976 -19.43,-43.398 -43.4,-43.398 -23.97,0 -43.4,19.422 -43.4,43.398 0,23.965 19.43,43.387 43.4,43.387 23.97,0 43.4,-19.422 43.4,-43.387"
         style="fill:#ffffff;fill-opacity:1;fill-rule:nonzero;stroke:none"
         id="path290" />
      <path
         d="m 8468.92,538.953 c 0,-24.199 -19.62,-43.82 -43.82,-43.82 -24.2,0 -43.82,19.621 -43.82,43.82 0,24.207 19.62,43.828 43.82,43.828 24.2,0 43.82,-19.621 43.82,-43.828"
         style="fill:#ffffff;fill-opacity:1;fill-rule:nonzero;stroke:none"
         id="path292" />
      <path
         d="m 8384.1,538.238 c 0,-24.199 -19.62,-43.816 -43.82,-43.816 -24.2,0 -43.83,19.617 -43.83,43.816 0,24.211 19.63,43.828 43.83,43.828 24.2,0 43.82,-19.617 43.82,-43.828"
         style="fill:#ffffff;fill-opacity:1;fill-rule:nonzero;stroke:none"
         id="path294" />
      <path
         d="m 8387.91,451.715 c 0,-25.567 -20.72,-46.289 -46.28,-46.289 -25.56,0 -46.29,20.722 -46.29,46.289 0,25.558 20.73,46.281 46.29,46.281 25.56,0 46.28,-20.723 46.28,-46.281"
         style="fill:#ffffff;fill-opacity:1;fill-rule:nonzero;stroke:none"
         id="path296" />
      <path
         d="m 8301.13,449.305 c 0,-25.891 -20.99,-46.887 -46.88,-46.887 -25.89,0 -46.88,20.996 -46.88,46.887 0,25.886 20.99,46.875 46.88,46.875 25.89,0 46.88,-20.989 46.88,-46.875"
         style="fill:#ffffff;fill-opacity:1;fill-rule:nonzero;stroke:none"
         id="path298" />
      <path
         d="m 8470.08,451.609 c 0,-24.863 -20.15,-45.011 -45.01,-45.011 -24.86,0 -45.01,20.148 -45.01,45.011 0,24.852 20.15,45 45.01,45 24.86,0 45.01,-20.148 45.01,-45"
         style="fill:#ffffff;fill-opacity:1;fill-rule:nonzero;stroke:none"
         id="path300" />
      <path
         d="m 8381.1,790.914 c 0,-22.309 -18.08,-40.391 -40.39,-40.391 -22.31,0 -40.39,18.082 -40.39,40.391 0,22.305 18.08,40.387 40.39,40.387 22.31,0 40.39,-18.082 40.39,-40.387"
         style="fill:#ffffff;fill-opacity:1;fill-rule:nonzero;stroke:none"
         id="path302" />
      <path
         d="m 8464.86,791.266 c 0,-22.305 -18.09,-40.391 -40.39,-40.391 -22.31,0 -40.4,18.086 -40.4,40.391 0,22.308 18.09,40.39 40.4,40.39 22.3,0 40.39,-18.082 40.39,-40.39"
         style="fill:#ffffff;fill-opacity:1;fill-rule:nonzero;stroke:none"
         id="path304" />
      <path
         d="m 8551.81,790.914 c 0,-22.309 -18.09,-40.391 -40.39,-40.391 -22.31,0 -40.39,18.082 -40.39,40.391 0,22.305 18.08,40.387 40.39,40.387 22.3,0 40.39,-18.082 40.39,-40.387"
         style="fill:#ffffff;fill-opacity:1;fill-rule:nonzero;stroke:none"
         id="path306" />
      <path
         d="m 8554.53,707.414 c 0,-24.434 -19.8,-44.234 -44.23,-44.234 -24.43,0 -44.23,19.8 -44.23,44.234 0,24.43 19.8,44.234 44.23,44.234 24.43,0 44.23,-19.804 44.23,-44.234"
         style="fill:#ffffff;fill-opacity:1;fill-rule:nonzero;stroke:none"
         id="path308" />
      <path
         d="m 8555.25,620.457 c 0,-24.426 -19.81,-44.23 -44.24,-44.23 -24.43,0 -44.24,19.804 -44.24,44.23 0,24.434 19.81,44.238 44.24,44.238 24.43,0 44.24,-19.804 44.24,-44.238"
         style="fill:#ffffff;fill-opacity:1;fill-rule:nonzero;stroke:none"
         id="path310" />
      <path
         d="m 8636.1,707.527 c 0,-23.035 -18.67,-41.699 -41.7,-41.699 -23.04,0 -41.7,18.664 -41.7,41.699 0,23.032 18.66,41.703 41.7,41.703 23.03,0 41.7,-18.671 41.7,-41.703"
         style="fill:#ffffff;fill-opacity:1;fill-rule:nonzero;stroke:none"
         id="path312" />
      <path
         d="m 8638.96,621.102 c 0,-24.551 -19.9,-44.454 -44.45,-44.454 -24.55,0 -44.45,19.903 -44.45,44.454 0,24.55 19.9,44.449 44.45,44.449 24.55,0 44.45,-19.899 44.45,-44.449"
         style="fill:#ffffff;fill-opacity:1;fill-rule:nonzero;stroke:none"
         id="path314" />
      <path
         d="m 8638.96,538.766 c 0,-24.551 -19.9,-44.453 -44.45,-44.453 -24.55,0 -44.45,19.902 -44.45,44.453 0,24.543 19.9,44.445 44.45,44.445 24.55,0 44.45,-19.902 44.45,-44.445"
         style="fill:#ffffff;fill-opacity:1;fill-rule:nonzero;stroke:none"
         id="path316" />
      <path
         d="m 8640.74,450.672 c 0,-25.176 -20.41,-45.586 -45.59,-45.586 -25.18,0 -45.59,20.41 -45.59,45.586 0,25.176 20.41,45.586 45.59,45.586 25.18,0 45.59,-20.41 45.59,-45.586"
         style="fill:#ffffff;fill-opacity:1;fill-rule:nonzero;stroke:none"
         id="path318" />
      <path
         d="m 8557.69,450.438 c 0,-26.094 -21.15,-47.247 -47.24,-47.247 -26.1,0 -47.25,21.153 -47.25,47.247 0,26.093 21.15,47.246 47.25,47.246 26.09,0 47.24,-21.153 47.24,-47.246"
         style="fill:#ffffff;fill-opacity:1;fill-rule:nonzero;stroke:none"
         id="path320" />
      <path
         d="m 8558.4,538.094 c 0,-26.094 -21.15,-47.246 -47.25,-47.246 -26.09,0 -47.24,21.152 -47.24,47.246 0,26.094 21.15,47.246 47.24,47.246 26.1,0 47.25,-21.152 47.25,-47.246"
         style="fill:#ffffff;fill-opacity:1;fill-rule:nonzero;stroke:none"
         id="path322" />
      <path
         d="m 8698.61,282.25 c 0,-9.922 -8.04,-17.961 -17.96,-17.961 -9.92,0 -17.96,8.039 -17.96,17.961 0,9.922 8.04,17.961 17.96,17.961 9.92,0 17.96,-8.039 17.96,-17.961"
         style="fill:#ffffff;fill-opacity:1;fill-rule:nonzero;stroke:none"
         id="path324" />
      <path
         d="m 8782.54,281.641 c 0,-10.582 -8.57,-19.153 -19.15,-19.153 -10.58,0 -19.15,8.571 -19.15,19.153 0,10.578 8.57,19.16 19.15,19.16 10.58,0 19.15,-8.582 19.15,-19.16"
         style="fill:#ffffff;fill-opacity:1;fill-rule:nonzero;stroke:none"
         id="path326" />
      <path
         d="m 8792.78,367.379 c 0,-16.25 -13.17,-29.418 -29.42,-29.418 -16.26,0 -29.43,13.168 -29.43,29.418 0,16.25 13.17,29.426 29.43,29.426 16.25,0 29.42,-13.176 29.42,-29.426"
         style="fill:#ffffff;fill-opacity:1;fill-rule:nonzero;stroke:none"
         id="path328" />
      <path
         d="m 8793.32,451.188 c 0,-16.25 -13.17,-29.434 -29.42,-29.434 -16.26,0 -29.43,13.184 -29.43,29.434 0,16.25 13.17,29.425 29.43,29.425 16.25,0 29.42,-13.175 29.42,-29.425"
         style="fill:#ffffff;fill-opacity:1;fill-rule:nonzero;stroke:none"
         id="path330" />
      <path
         d="m 8792.51,537.703 c 0,-16.25 -13.17,-29.426 -29.43,-29.426 -16.25,0 -29.43,13.176 -29.43,29.426 0,16.258 13.18,29.434 29.43,29.434 16.26,0 29.43,-13.176 29.43,-29.434"
         style="fill:#ffffff;fill-opacity:1;fill-rule:nonzero;stroke:none"
         id="path332" />
      <path
         d="m 8792.78,620.973 c 0,-16.258 -13.17,-29.434 -29.42,-29.434 -16.26,0 -29.43,13.176 -29.43,29.434 0,16.25 13.17,29.425 29.43,29.425 16.25,0 29.42,-13.175 29.42,-29.425"
         style="fill:#ffffff;fill-opacity:1;fill-rule:nonzero;stroke:none"
         id="path334" />
      <path
         d="m 8711.83,450.711 c 0,-17.559 -14.24,-31.797 -31.8,-31.797 -17.57,0 -31.8,14.238 -31.8,31.797 0,17.566 14.23,31.805 31.8,31.805 17.56,0 31.8,-14.239 31.8,-31.805"
         style="fill:#ffffff;fill-opacity:1;fill-rule:nonzero;stroke:none"
         id="path336" />
      <path
         d="m 8711.83,537.77 c 0,-17.559 -14.24,-31.797 -31.8,-31.797 -17.57,0 -31.8,14.238 -31.8,31.797 0,17.57 14.23,31.808 31.8,31.808 17.56,0 31.8,-14.238 31.8,-31.808"
         style="fill:#ffffff;fill-opacity:1;fill-rule:nonzero;stroke:none"
         id="path338" />
      <path
         d="m 8712.37,620.496 c 0,-17.57 -14.24,-31.808 -31.8,-31.808 -17.56,0 -31.8,14.238 -31.8,31.808 0,17.559 14.24,31.801 31.8,31.801 17.56,0 31.8,-14.242 31.8,-31.801"
         style="fill:#ffffff;fill-opacity:1;fill-rule:nonzero;stroke:none"
         id="path340" />
      <path
         d="m 8706.54,707.625 c 0,-14.684 -11.9,-26.582 -26.59,-26.582 -14.67,0 -26.57,11.898 -26.57,26.582 0,14.676 11.9,26.574 26.57,26.574 14.69,0 26.59,-11.898 26.59,-26.574"
         style="fill:#ffffff;fill-opacity:1;fill-rule:nonzero;stroke:none"
         id="path342" />
      <path
         d="m 8792.95,706.992 c 0,-16.523 -13.39,-29.914 -29.92,-29.914 -16.52,0 -29.92,13.391 -29.92,29.914 0,16.524 13.4,29.922 29.92,29.922 16.53,0 29.92,-13.398 29.92,-29.922"
         style="fill:#ffffff;fill-opacity:1;fill-rule:nonzero;stroke:none"
         id="path344" />
      <path
         d="m 8793.05,790.305 c 0,-16.223 -13.15,-29.371 -29.37,-29.371 -16.22,0 -29.36,13.148 -29.36,29.371 0,16.215 13.14,29.367 29.36,29.367 16.22,0 29.37,-13.152 29.37,-29.367"
         style="fill:#ffffff;fill-opacity:1;fill-rule:nonzero;stroke:none"
         id="path346" />
      <path
         d="m 8792.78,876.551 c 0,-16.223 -13.15,-29.367 -29.37,-29.367 -16.22,0 -29.36,13.144 -29.36,29.367 0,16.219 13.14,29.363 29.36,29.363 16.22,0 29.37,-13.144 29.37,-29.363"
         style="fill:#ffffff;fill-opacity:1;fill-rule:nonzero;stroke:none"
         id="path348" />
      <path
         d="m 8791.91,959.992 c 0,-15.347 -12.44,-27.785 -27.78,-27.785 -15.34,0 -27.78,12.438 -27.78,27.785 0,15.34 12.44,27.778 27.78,27.778 15.34,0 27.78,-12.438 27.78,-27.778"
         style="fill:#ffffff;fill-opacity:1;fill-rule:nonzero;stroke:none"
         id="path350" />
      <path
         d="m 8787.9,1043.25 c 0,-12.8 -10.38,-23.18 -23.19,-23.18 -12.81,0 -23.19,10.38 -23.19,23.18 0,12.81 10.38,23.19 23.19,23.19 12.81,0 23.19,-10.38 23.19,-23.19"
         style="fill:#ffffff;fill-opacity:1;fill-rule:nonzero;stroke:none"
         id="path352" />
      <path
         d="m 8884.11,1043.68 c 0,-18.94 -15.36,-34.3 -34.3,-34.3 -18.95,0 -34.31,15.36 -34.31,34.3 0,18.95 15.36,34.32 34.31,34.32 18.94,0 34.3,-15.37 34.3,-34.32"
         style="fill:#ffffff;fill-opacity:1;fill-rule:nonzero;stroke:none"
         id="path354" />
      <path
         d="m 8967.15,1044.05 c 0,-18.52 -15.01,-33.53 -33.52,-33.53 -18.52,0 -33.53,15.01 -33.53,33.53 0,18.51 15.01,33.52 33.53,33.52 18.51,0 33.52,-15.01 33.52,-33.52"
         style="fill:#ffffff;fill-opacity:1;fill-rule:nonzero;stroke:none"
         id="path356" />
      <path
         d="m 8891.73,959.875 c 0,-23.414 -18.98,-42.395 -42.39,-42.395 -23.41,0 -42.39,18.981 -42.39,42.395 0,23.406 18.98,42.385 42.39,42.385 23.41,0 42.39,-18.979 42.39,-42.385"
         style="fill:#ffffff;fill-opacity:1;fill-rule:nonzero;stroke:none"
         id="path358" />
      <path
         d="m 8894.18,876.113 c 0,-24.441 -19.82,-44.258 -44.27,-44.258 -24.44,0 -44.26,19.817 -44.26,44.258 0,24.45 19.82,44.266 44.26,44.266 24.45,0 44.27,-19.82 44.27,-44.266"
         style="fill:#ffffff;fill-opacity:1;fill-rule:nonzero;stroke:none"
         id="path360" />
      <path
         d="m 8892.88,791.32 c 0,-24.441 -19.82,-44.261 -44.26,-44.261 -24.44,0.004 -44.26,19.82 -44.26,44.261 0,24.442 19.82,44.258 44.26,44.258 24.44,0 44.26,-19.816 44.26,-44.258"
         style="fill:#ffffff;fill-opacity:1;fill-rule:nonzero;stroke:none"
         id="path362" />
      <path
         d="m 8895.15,707.492 c 0,-24.441 -19.82,-44.258 -44.26,-44.258 -24.45,0 -44.27,19.817 -44.27,44.258 0,24.449 19.82,44.262 44.27,44.262 24.44,0 44.26,-19.82 44.26,-44.262"
         style="fill:#ffffff;fill-opacity:1;fill-rule:nonzero;stroke:none"
         id="path364" />
      <path
         d="m 8895.15,621.402 c 0,-24.441 -19.82,-44.257 -44.26,-44.257 -24.45,0 -44.27,19.816 -44.27,44.257 0,24.446 19.82,44.258 44.27,44.258 24.44,0 44.26,-19.812 44.26,-44.258"
         style="fill:#ffffff;fill-opacity:1;fill-rule:nonzero;stroke:none"
         id="path366" />
      <path
         d="m 8894.82,537.898 c 0,-24.445 -19.81,-44.257 -44.26,-44.257 -24.44,0 -44.26,19.812 -44.26,44.257 0,24.442 19.82,44.258 44.26,44.258 24.45,0 44.26,-19.816 44.26,-44.258"
         style="fill:#ffffff;fill-opacity:1;fill-rule:nonzero;stroke:none"
         id="path368" />
      <path
         d="m 8894.5,450.836 c 0,-24.441 -19.81,-44.258 -44.26,-44.258 -24.45,0 -44.26,19.817 -44.26,44.258 0,24.445 19.81,44.258 44.26,44.258 24.45,0 44.26,-19.813 44.26,-44.258"
         style="fill:#ffffff;fill-opacity:1;fill-rule:nonzero;stroke:none"
         id="path370" />
      <path
         d="m 8889.31,368.531 c 0,-21.972 -17.82,-39.781 -39.79,-39.781 -21.98,0 -39.79,17.809 -39.79,39.781 0,21.981 17.81,39.797 39.79,39.797 21.97,0 39.79,-17.816 39.79,-39.797"
         style="fill:#ffffff;fill-opacity:1;fill-rule:nonzero;stroke:none"
         id="path372" />
      <path
         d="m 8973.08,367.461 c 0,-23.141 -18.76,-41.891 -41.89,-41.891 -23.14,0 -41.89,18.75 -41.89,41.891 0,23.129 18.76,41.891 41.89,41.891 23.13,0 41.89,-18.762 41.89,-41.891"
         style="fill:#ffffff;fill-opacity:1;fill-rule:nonzero;stroke:none"
         id="path374" />
      <path
         d="m 9059.29,368.441 c 0,-22.082 -17.9,-39.98 -39.98,-39.98 -22.09,0 -39.99,17.898 -39.99,39.98 0,22.079 17.9,39.985 39.99,39.993 22.08,0 39.98,-17.914 39.98,-39.993"
         style="fill:#ffffff;fill-opacity:1;fill-rule:nonzero;stroke:none"
         id="path376" />
      <path
         d="m 9310.24,368.34 c 0,-21.238 -17.22,-38.449 -38.45,-38.449 -21.24,0 -38.45,17.218 -38.45,38.449 0,21.238 17.21,38.445 38.45,38.445 21.23,0 38.45,-17.215 38.45,-38.445"
         style="fill:#ffffff;fill-opacity:1;fill-rule:nonzero;stroke:none"
         id="path378" />
      <path
         d="m 9144.3,367.859 c 0,-23.519 -19.06,-42.578 -42.57,-42.589 -23.51,0 -42.58,19.058 -42.58,42.582 0,23.5 19.07,42.566 42.58,42.574 23.51,0 42.57,-19.067 42.57,-42.567"
         style="fill:#ffffff;fill-opacity:1;fill-rule:nonzero;stroke:none"
         id="path380" />
      <path
         d="m 9228.2,367.859 c 0,-23.519 -19.06,-42.578 -42.57,-42.589 -23.52,0 -42.58,19.058 -42.58,42.582 0,23.5 19.06,42.566 42.57,42.574 23.52,0 42.58,-19.067 42.58,-42.567"
         style="fill:#ffffff;fill-opacity:1;fill-rule:nonzero;stroke:none"
         id="path382" />
      <path
         d="m 8976.71,790.672 c 0,-24.445 -19.82,-44.258 -44.27,-44.258 -24.44,0 -44.25,19.813 -44.25,44.258 0,24.445 19.81,44.262 44.26,44.262 24.44,0 44.26,-19.821 44.26,-44.262"
         style="fill:#ffffff;fill-opacity:1;fill-rule:nonzero;stroke:none"
         id="path384" />
      <path
         d="m 8979.47,706.652 c 0,-26.328 -21.34,-47.672 -47.67,-47.672 -26.33,0 -47.68,21.344 -47.68,47.672 0,26.328 21.35,47.672 47.68,47.672 26.33,0 47.67,-21.344 47.67,-47.672"
         style="fill:#ffffff;fill-opacity:1;fill-rule:nonzero;stroke:none"
         id="path386" />
      <path
         d="m 8979.03,620.867 c 0,-26.047 -21.11,-47.16 -47.16,-47.16 -26.04,0 -47.16,21.113 -47.16,47.16 0,26.043 21.12,47.156 47.16,47.156 26.05,0.004 47.16,-21.113 47.16,-47.156"
         style="fill:#ffffff;fill-opacity:1;fill-rule:nonzero;stroke:none"
         id="path388" />
      <path
         d="m 8980.65,536.715 c 0,-26.043 -21.11,-47.156 -47.16,-47.156 -26.04,0 -47.15,21.113 -47.15,47.156 0,26.047 21.11,47.16 47.15,47.16 26.05,0 47.16,-21.113 47.16,-47.16"
         style="fill:#ffffff;fill-opacity:1;fill-rule:nonzero;stroke:none"
         id="path390" />
      <path
         d="m 8981.95,451.277 c 0,-26.047 -21.12,-47.16 -47.16,-47.16 -26.05,0 -47.16,21.113 -47.16,47.16 0,26.036 21.11,47.157 47.16,47.157 26.04,0 47.16,-21.114 47.16,-47.157"
         style="fill:#ffffff;fill-opacity:1;fill-rule:nonzero;stroke:none"
         id="path392" />
      <path
         d="m 8973.37,875.504 c 0,-22.734 -18.43,-41.164 -41.17,-41.164 -22.73,0 -41.17,18.426 -41.17,41.164 0,22.734 18.44,41.168 41.17,41.168 22.74,0 41.17,-18.43 41.17,-41.168"
         style="fill:#ffffff;fill-opacity:1;fill-rule:nonzero;stroke:none"
         id="path394" />
      <path
         d="m 9059.91,791.496 c 0,-22.5 -18.24,-40.738 -40.74,-40.738 -22.5,0 -40.74,18.238 -40.74,40.738 0,22.5 18.24,40.738 40.74,40.738 22.5,0 40.74,-18.242 40.74,-40.738"
         style="fill:#ffffff;fill-opacity:1;fill-rule:nonzero;stroke:none"
         id="path396" />
      <path
         d="m 9143.1,790.496 c 0,-22.5 -18.24,-40.738 -40.74,-40.738 -22.5,0 -40.74,18.242 -40.74,40.742 0,22.5 18.24,40.738 40.74,40.738 22.5,-0.008 40.74,-18.242 40.74,-40.742"
         style="fill:#ffffff;fill-opacity:1;fill-rule:nonzero;stroke:none"
         id="path398" />
      <path
         d="m 9306.55,790.906 c 0,-18.98 -15.4,-34.367 -34.37,-34.367 -18.98,0 -34.37,15.387 -34.37,34.367 0,18.981 15.39,34.364 34.37,34.364 18.98,0 34.37,-15.383 34.37,-34.364"
         style="fill:#ffffff;fill-opacity:1;fill-rule:nonzero;stroke:none"
         id="path400" />
      <path
         d="m 9227.29,789.832 c 0,-22.5 -18.24,-40.738 -40.74,-40.738 -22.5,0 -40.75,18.242 -40.75,40.738 0.01,22.5 18.25,40.734 40.75,40.734 22.5,0 40.74,-18.234 40.74,-40.734"
         style="fill:#ffffff;fill-opacity:1;fill-rule:nonzero;stroke:none"
         id="path402" />
      <path
         d="m 9316.01,707.867 c 0,-24.207 -19.63,-43.836 -43.84,-43.836 -24.21,0.004 -43.84,19.629 -43.84,43.84 0,24.211 19.63,43.836 43.84,43.836 24.21,0 43.84,-19.629 43.84,-43.84"
         style="fill:#ffffff;fill-opacity:1;fill-rule:nonzero;stroke:none"
         id="path404" />
      <path
         d="m 9233.72,707.617 c 0,-25.937 -21.03,-46.961 -46.97,-46.961 -25.94,0.004 -46.97,21.032 -46.97,46.969 0,25.938 21.03,46.961 46.97,46.961 25.94,-0.004 46.97,-21.031 46.97,-46.969"
         style="fill:#ffffff;fill-opacity:1;fill-rule:nonzero;stroke:none"
         id="path406" />
      <path
         d="m 9150.53,705.953 c 0,-25.937 -21.03,-46.961 -46.97,-46.957 -25.94,0 -46.97,21.031 -46.97,46.969 0,25.937 21.03,46.957 46.97,46.957 25.94,0 46.97,-21.031 46.97,-46.969"
         style="fill:#ffffff;fill-opacity:1;fill-rule:nonzero;stroke:none"
         id="path408" />
      <path
         d="m 9065.01,706.285 c 0,-25.937 -21.03,-46.961 -46.97,-46.957 -25.94,0 -46.96,21.031 -46.96,46.969 0,25.937 21.03,46.961 46.96,46.957 25.95,0 46.97,-21.031 46.97,-46.969"
         style="fill:#ffffff;fill-opacity:1;fill-rule:nonzero;stroke:none"
         id="path410" />
      <path
         d="m 9063.76,621.844 c 0,-24.551 -19.91,-44.465 -44.47,-44.465 -24.56,0 -44.46,19.914 -44.46,44.473 0,24.55 19.9,44.464 44.46,44.464 24.56,0 44.47,-19.914 44.47,-44.472"
         style="fill:#ffffff;fill-opacity:1;fill-rule:nonzero;stroke:none"
         id="path412" />
      <path
         d="m 9145.62,620.848 c 0,-24.551 -19.91,-44.465 -44.47,-44.465 -24.56,0 -44.46,19.914 -44.46,44.465 0,24.558 19.9,44.465 44.46,44.465 24.56,0 44.46,-19.907 44.47,-44.465"
         style="fill:#ffffff;fill-opacity:1;fill-rule:nonzero;stroke:none"
         id="path414" />
      <path
         d="m 9229.47,620.516 c 0,-24.563 -19.91,-44.465 -44.47,-44.465 -24.55,0 -44.46,19.914 -44.46,44.465 0,24.558 19.91,44.464 44.46,44.464 24.56,0 44.47,-19.906 44.47,-44.464"
         style="fill:#ffffff;fill-opacity:1;fill-rule:nonzero;stroke:none"
         id="path416" />
      <path
         d="m 9316.98,451.148 c 0,-24.558 -19.9,-44.472 -44.46,-44.472 -24.56,0 -44.47,19.914 -44.47,44.472 0,24.551 19.91,44.465 44.47,44.465 24.55,0 44.46,-19.914 44.46,-44.465"
         style="fill:#ffffff;fill-opacity:1;fill-rule:nonzero;stroke:none"
         id="path418" />
      <path
         d="m 9231.8,537.996 c 0,-24.562 -19.91,-44.465 -44.47,-44.465 -24.55,0 -44.46,19.903 -44.46,44.465 0,24.559 19.91,44.461 44.46,44.461 24.56,0 44.47,-19.902 44.47,-44.461"
         style="fill:#ffffff;fill-opacity:1;fill-rule:nonzero;stroke:none"
         id="path420" />
      <path
         d="m 9147.28,537.664 c 0,-24.562 -19.91,-44.465 -44.47,-44.465 -24.56,0 -44.46,19.903 -44.46,44.465 0,24.559 19.9,44.461 44.46,44.461 24.56,0 44.47,-19.902 44.47,-44.461"
         style="fill:#ffffff;fill-opacity:1;fill-rule:nonzero;stroke:none"
         id="path422" />
      <path
         d="m 9063.43,537 c 0,-24.562 -19.91,-44.473 -44.47,-44.473 -24.56,0 -44.47,19.911 -44.47,44.473 0,24.551 19.91,44.461 44.47,44.461 24.56,0 44.47,-19.91 44.47,-44.461"
         style="fill:#ffffff;fill-opacity:1;fill-rule:nonzero;stroke:none"
         id="path424" />
      <path
         d="m 9063.76,450.477 c 0,-24.551 -19.91,-44.465 -44.47,-44.465 -24.56,0 -44.46,19.914 -44.46,44.465 0,24.558 19.9,44.472 44.46,44.472 24.56,0 44.47,-19.914 44.47,-44.472"
         style="fill:#ffffff;fill-opacity:1;fill-rule:nonzero;stroke:none"
         id="path426" />
      <path
         d="m 9145.95,450.816 c 0,-24.558 -19.91,-44.472 -44.47,-44.472 -24.55,0 -44.46,19.914 -44.46,44.472 0,24.551 19.91,44.465 44.46,44.465 24.56,0 44.47,-19.914 44.47,-44.465"
         style="fill:#ffffff;fill-opacity:1;fill-rule:nonzero;stroke:none"
         id="path428" />
      <path
         d="m 9229.47,451.148 c 0,-24.558 -19.91,-44.472 -44.47,-44.472 -24.55,0 -44.46,19.914 -44.46,44.472 0,24.551 19.91,44.465 44.46,44.465 24.56,0 44.47,-19.914 44.47,-44.465"
         style="fill:#ffffff;fill-opacity:1;fill-rule:nonzero;stroke:none"
         id="path430" />
      <path
         d="m 9319.34,621.168 c 0,-25.488 -20.66,-46.152 -46.14,-46.152 -25.49,0 -46.15,20.664 -46.15,46.152 0,25.48 20.66,46.145 46.15,46.145 25.48,0 46.14,-20.665 46.14,-46.145"
         style="fill:#ffffff;fill-opacity:1;fill-rule:nonzero;stroke:none"
         id="path432" />
      <path
         d="m 9318.02,536.98 c 0,-25.488 -20.67,-46.144 -46.15,-46.144 -25.49,0 -46.14,20.656 -46.14,46.144 0,25.489 20.65,46.141 46.14,46.141 25.48,0 46.15,-20.652 46.15,-46.141"
         style="fill:#ffffff;fill-opacity:1;fill-rule:nonzero;stroke:none"
         id="path434" />
      <path
         d="m 8972.89,959.738 c 0,-22.152 -17.96,-40.117 -40.12,-40.121 -22.16,0 -40.12,17.957 -40.12,40.117 0,22.157 17.96,40.121 40.12,40.121 22.16,0 40.12,-17.96 40.12,-40.117"
         style="fill:#ffffff;fill-opacity:1;fill-rule:nonzero;stroke:none"
         id="path436" />
      <path
         d="m 9132.18,282.129 c 0,-16.91 -13.71,-30.617 -30.62,-30.617 -16.91,0 -30.62,13.707 -30.62,30.617 0,16.91 13.71,30.621 30.62,30.621 16.91,0 30.62,-13.711 30.62,-30.621"
         style="fill:#ffffff;fill-opacity:1;fill-rule:nonzero;stroke:none"
         id="path438" />
      <path
         d="m 9215.47,281.52 c 0,-16.911 -13.71,-30.622 -30.62,-30.622 -16.91,0 -30.62,13.711 -30.62,30.622 0,16.902 13.71,30.621 30.62,30.621 16.91,0 30.62,-13.719 30.62,-30.621"
         style="fill:#ffffff;fill-opacity:1;fill-rule:nonzero;stroke:none"
         id="path440" />
      <path
         d="m 9295.17,281.691 c 0,-12.953 -10.51,-23.461 -23.46,-23.461 -12.96,0 -23.47,10.508 -23.47,23.461 0,12.957 10.51,23.457 23.47,23.457 12.95,0 23.46,-10.5 23.46,-23.457"
         style="fill:#ffffff;fill-opacity:1;fill-rule:nonzero;stroke:none"
         id="path442" />
      <path
         d="m 9457.66,450.848 c 0,-8.293 -6.71,-15.012 -15,-15.012 -8.28,0 -15,6.719 -15,15.012 0,8.281 6.72,15 15,15 8.29,0 15,-6.719 15,-15"
         style="fill:#ffffff;fill-opacity:1;fill-rule:nonzero;stroke:none"
         id="path444" />
      <path
         d="m 9460.73,538.57 c 0,-10.742 -8.71,-19.441 -19.44,-19.441 -10.75,0 -19.45,8.699 -19.45,19.441 0,10.735 8.7,19.446 19.45,19.446 10.73,0 19.44,-8.711 19.44,-19.446"
         style="fill:#ffffff;fill-opacity:1;fill-rule:nonzero;stroke:none"
         id="path446" />
      <path
         d="m 9210.37,876.398 c 0,-13.558 -10.99,-24.554 -24.55,-24.554 -13.56,0 -24.55,10.996 -24.55,24.554 0,13.559 10.99,24.551 24.55,24.551 13.56,0 24.55,-10.992 24.55,-24.551"
         style="fill:#ffffff;fill-opacity:1;fill-rule:nonzero;stroke:none"
         id="path448" />
      <path
         d="m 9126.78,877.008 c 0,-13.559 -10.99,-24.551 -24.55,-24.551 -13.56,0 -24.55,10.992 -24.55,24.551 0,13.558 10.99,24.551 24.55,24.551 13.56,0 24.55,-10.993 24.55,-24.551"
         style="fill:#ffffff;fill-opacity:1;fill-rule:nonzero;stroke:none"
         id="path450" />
      <path
         d="m 9041.12,960.262 c 0,-12.227 -9.92,-22.141 -22.14,-22.141 -12.23,0 -22.14,9.914 -22.14,22.141 0,12.226 9.92,22.133 22.14,22.133 12.22,0 22.14,-9.915 22.14,-22.133"
         style="fill:#ffffff;fill-opacity:1;fill-rule:nonzero;stroke:none"
         id="path452" />
      <path
         d="m 9377.01,790.016 c 0,-12.227 -9.91,-22.137 -22.13,-22.137 -12.23,0 -22.14,9.91 -22.14,22.137 0,12.226 9.91,22.132 22.14,22.132 12.22,0 22.13,-9.91 22.13,-22.132"
         style="fill:#ffffff;fill-opacity:1;fill-rule:nonzero;stroke:none"
         id="path454" />
      <path
         d="m 9046.74,875.848 c 0,-15.551 -12.61,-28.164 -28.16,-28.164 -15.56,0 -28.17,12.613 -28.17,28.164 0,15.554 12.61,28.164 28.17,28.164 15.55,0 28.16,-12.61 28.16,-28.164"
         style="fill:#ffffff;fill-opacity:1;fill-rule:nonzero;stroke:none"
         id="path456" />
      <path
         d="m 9459.81,620.32 c 0,-9.894 -8.02,-17.91 -17.91,-17.91 -9.9,0 -17.92,8.016 -17.92,17.91 0,9.891 8.02,17.91 17.92,17.91 9.89,0 17.91,-8.019 17.91,-17.91"
         style="fill:#ffffff;fill-opacity:1;fill-rule:nonzero;stroke:none"
         id="path458" />
      <path
         d="m 9290.48,876.91 c 0,-9.89 -8.02,-17.91 -17.91,-17.91 -9.89,0 -17.91,8.02 -17.91,17.91 0,9.895 8.02,17.914 17.91,17.914 9.89,0 17.91,-8.019 17.91,-17.914"
         style="fill:#ffffff;fill-opacity:1;fill-rule:nonzero;stroke:none"
         id="path460" />
      <path
         d="m 9455.22,707.281 c 0,-7.187 -5.83,-13.015 -13.02,-13.015 -7.18,0 -13.01,5.828 -13.01,13.015 0,7.184 5.83,13.016 13.01,13.016 7.19,0 13.02,-5.832 13.02,-13.016"
         style="fill:#ffffff;fill-opacity:1;fill-rule:nonzero;stroke:none"
         id="path462" />
      <path
         d="m 9449.7,791.18 c 0,-4.657 -3.76,-8.422 -8.41,-8.422 -4.66,0 -8.43,3.765 -8.43,8.422 0,4.648 3.77,8.418 8.43,8.418 4.65,0 8.41,-3.77 8.41,-8.418"
         style="fill:#ffffff;fill-opacity:1;fill-rule:nonzero;stroke:none"
         id="path464" />
      <path
         d="m 9364.27,876.91 c 0,-4.648 -3.76,-8.418 -8.41,-8.418 -4.66,0 -8.43,3.77 -8.43,8.418 0,4.653 3.77,8.422 8.43,8.422 4.65,0 8.41,-3.769 8.41,-8.422"
         style="fill:#ffffff;fill-opacity:1;fill-rule:nonzero;stroke:none"
         id="path466" />
      <path
         d="m 9391.91,538.063 c 0,-20.215 -16.39,-36.602 -36.61,-36.602 -20.21,0 -36.6,16.387 -36.6,36.602 0,20.214 16.39,36.601 36.6,36.601 20.22,0 36.61,-16.387 36.61,-36.601"
         style="fill:#ffffff;fill-opacity:1;fill-rule:nonzero;stroke:none"
         id="path468" />
      <path
         d="m 9392.92,621.383 c 0,-20.938 -16.98,-37.91 -37.92,-37.91 -20.94,0 -37.91,16.972 -37.91,37.91 0,20.949 16.97,37.922 37.91,37.922 20.94,0 37.92,-16.973 37.92,-37.922"
         style="fill:#ffffff;fill-opacity:1;fill-rule:nonzero;stroke:none"
         id="path470" />
      <path
         d="m 9388.23,708.875 c 0,-18.543 -15.04,-33.574 -33.58,-33.574 -18.54,0 -33.58,15.031 -33.58,33.574 0,18.543 15.04,33.578 33.58,33.578 18.54,0 33.58,-15.035 33.58,-33.578"
         style="fill:#ffffff;fill-opacity:1;fill-rule:nonzero;stroke:none"
         id="path472" />
      <path
         d="m 9388.89,450.992 c 0,-18.543 -15.03,-33.574 -33.58,-33.574 -18.54,0 -33.57,15.031 -33.57,33.574 0,18.547 15.03,33.574 33.57,33.574 18.55,0 33.58,-15.027 33.58,-33.574"
         style="fill:#ffffff;fill-opacity:1;fill-rule:nonzero;stroke:none"
         id="path474" />
      <path
         d="M 124.148,946.613 H 44.793 v -55.031 h 75.516 V 856.379 H 44.793 v -97.91 H -0.00390625 v 223.34 H 124.148 v -35.196"
         style="fill:#ffffff;fill-opacity:1;fill-rule:nonzero;stroke:none"
         id="path476" />
      <path
         d="m 402.547,925.18 c -11.195,16.953 -27.199,25.269 -47.992,25.269 -20.801,0 -36.797,-8.316 -48,-25.269 -9.918,-14.407 -14.715,-32.641 -14.715,-54.399 0,-22.722 4.797,-40.957 14.078,-55.672 11.199,-16.64 27.516,-25.285 48.637,-25.285 21.433,0 37.433,8.645 48.633,25.285 9.281,14.715 14.082,32.95 14.082,55.672 0,21.758 -4.801,39.992 -14.723,54.399 z m 33.281,-137.914 c -19.523,-21.754 -46.719,-32.633 -81.273,-32.633 -34.879,0 -62.078,10.555 -81.598,32.312 -18.559,20.801 -27.836,48.645 -27.836,83.836 0,34.875 9.277,62.715 28.156,83.196 19.52,21.113 46.399,31.679 81.278,31.679 34.554,0 61.433,-10.566 80.953,-32.004 18.875,-20.8 28.472,-48.32 28.472,-82.871 0,-34.558 -9.277,-62.398 -28.152,-83.515"
         style="fill:#ffffff;fill-opacity:1;fill-rule:nonzero;stroke:none"
         id="path478" />
      <path
         d="M 782.387,758.469 H 727.668 L 642.238,925.5 h -0.64 V 758.469 h -42.879 v 223.34 h 55.039 l 85.113,-167.024 h 0.637 v 167.024 h 42.879 v -223.34"
         style="fill:#ffffff;fill-opacity:1;fill-rule:nonzero;stroke:none"
         id="path480" />
      <path
         d="m 1077.42,946.613 h -63.99 V 758.469 h -44.797 v 188.144 h -64 v 35.196 h 172.787 v -35.196"
         style="fill:#ffffff;fill-opacity:1;fill-rule:nonzero;stroke:none"
         id="path482" />
      <path
         d="m 1385.9,981.809 -79.99,-135.032 v -88.308 h -44.8 v 88.308 l -81.6,135.032 h 52.48 l 52.8,-93.75 53.75,93.75 h 47.36"
         style="fill:#ffffff;fill-opacity:1;fill-rule:nonzero;stroke:none"
         id="path484" />
      <path
         d="m 1623.66,769.992 c -14.72,-10.246 -34.23,-15.359 -58.87,-15.359 -14.4,0 -33.6,2.879 -57.28,8.629 l 4.16,40.324 c 16.96,-9.277 33.6,-13.762 50.55,-13.762 9.93,0 18.56,2.239 26.24,7.043 8.96,5.117 13.44,12.481 13.44,21.758 0,11.199 -8.64,20.477 -25.28,28.152 -29.43,12.805 -44.79,20.168 -47.35,21.758 -16.96,11.524 -25.28,27.844 -25.28,48.969 0,23.348 8,40.953 24.32,52.793 13.76,10.23 31.68,15.359 53.75,15.359 19.84,0 37.44,-2.566 53.44,-8.008 l -4.16,-36.796 c -15.04,6.406 -30.08,9.597 -45.43,9.597 -9.29,0 -17.28,-2.234 -23.36,-6.394 -8,-5.442 -11.84,-13.438 -11.84,-24.641 0,-10.234 8.32,-18.875 25.27,-25.918 27.2,-11.199 42.88,-18.555 47.36,-21.433 16.64,-11.844 25.28,-28.477 25.28,-49.922 0,-23.039 -8.32,-40.313 -24.96,-52.149"
         style="fill:#ffffff;fill-opacity:1;fill-rule:nonzero;stroke:none"
         id="path486" />
      <path
         d="m 1075.83,308.469 h -44.8 v 223.344 h 44.8 V 308.469"
         style="fill:#ffffff;fill-opacity:1;fill-rule:nonzero;stroke:none"
         id="path488" />
      <path
         d="m 1382.38,311.68 c -19.84,-4.809 -36.8,-7.039 -50.88,-7.039 -37.43,0 -66.87,9.269 -88.31,27.519 -22.72,19.512 -34.24,47.352 -34.24,84.145 0,38.078 10.88,67.199 32.64,88.312 21.76,20.801 51.84,31.043 89.91,31.043 17.92,0 34.88,-3.203 50.56,-9.285 l -3.2,-37.754 c -13.76,7.996 -30.08,11.836 -48.32,11.836 -22.72,0 -40.95,-7.676 -54.71,-23.359 -13.44,-15.039 -20.16,-34.231 -20.16,-57.59 0,-23.36 6.72,-42.238 20.16,-56.957 13.76,-15.039 32.32,-22.723 55.67,-22.723 20.8,0 36.8,3.203 48.96,9.281 l 1.92,-37.429"
         style="fill:#ffffff;fill-opacity:1;fill-rule:nonzero;stroke:none"
         id="path490" />
      <path
         d="m 1660.78,496.617 h -64 V 308.469 h -44.79 v 188.148 h -64 v 35.196 h 172.79 v -35.196"
         style="fill:#ffffff;fill-opacity:1;fill-rule:nonzero;stroke:none"
         id="path492" />
    </g>
  </g>
</svg>
